<?xml version="1.0" encoding="iso-8859-1"?>
<!-- Generator: Adobe Illustrator 19.0.0, SVG Export Plug-In . SVG Version: 6.00 Build 0)  -->
<svg version="1.1" id="Layer_1" xmlns="http://www.w3.org/2000/svg" xmlns:xlink="http://www.w3.org/1999/xlink" x="0px" y="0px"
	 viewBox="0 0 496 496" style="enable-background:new 0 0 496 496;" xml:space="preserve">
<g>
	<path style="fill:#F9BA48;" d="M176,236H64v-96h112V236z"/>
	<path style="fill:#F9BA48;" d="M304,236H192v-96h112V236z"/>
	<path style="fill:#F9BA48;" d="M432,236H320v-96h112V236z"/>
</g>
<g>
	<path style="fill:#333333;" d="M464,44H32C14.352,44,0,58.352,0,76v288c0,17.648,14.352,32,32,32h144v40h-56v16h56h144h56v-16h-56
		v-40h144c17.648,0,32-14.352,32-32V76C496,58.352,481.648,44,464,44z M304,436H192v-40h112V436z M480,364c0,8.824-7.176,16-16,16
		H320H176H32c-8.824,0-16-7.176-16-16V76c0-8.824,7.176-16,16-16h432c8.824,0,16,7.176,16,16V364z"/>
	<path style="fill:#333333;" d="M32,364h432V76H32V364z M48,92h400v256H48V92z"/>
	<circle style="fill:#333333;" cx="72" cy="116" r="8"/>
	<circle style="fill:#333333;" cx="96" cy="116" r="8"/>
	<circle style="fill:#333333;" cx="120" cy="116" r="8"/>
	<rect x="64" y="252" style="fill:#333333;" width="240" height="16"/>
	<rect x="64" y="284" style="fill:#333333;" width="240" height="16"/>
	<rect x="64" y="316" style="fill:#333333;" width="240" height="16"/>
	<rect x="328" y="252" style="fill:#333333;" width="104" height="16"/>
	<rect x="328" y="284" style="fill:#333333;" width="104" height="16"/>
	<rect x="328" y="316" style="fill:#333333;" width="104" height="16"/>
</g>
<g>
</g>
<g>
</g>
<g>
</g>
<g>
</g>
<g>
</g>
<g>
</g>
<g>
</g>
<g>
</g>
<g>
</g>
<g>
</g>
<g>
</g>
<g>
</g>
<g>
</g>
<g>
</g>
<g>
</g>
</svg>
